{
	"asset":{
		"generator":"Khronos glTF Blender I/O v3.6.27",
		"version":"2.0"
	},
	"extensionsUsed":[
		"KHR_materials_specular",
		"KHR_materials_ior"
	],
	"scene":0,
	"scenes":[
		{
			"name":"Scene",
			"nodes":[
				0
			]
		}
	],
	"nodes":[
		{
			"mesh":0,
			"name":"wedding_dress_ver_1",
			"rotation":[
				0.7071068286895752,
				0,
				0,
				0.7071068286895752
			]
		}
	],
	"materials":[
		{
			"doubleSided":true,
			"extensions":{
				"KHR_materials_specular":{
					"specularColorFactor":[
						0,
						0,
						0
					]
				},
				"KHR_materials_ior":{
					"ior":1.4500000476837158
				}
			},
			"name":"Material41178",
			"pbrMetallicRoughness":{
				"baseColorFactor":[
					0.800000011920929,
					0.800000011920929,
					0.800000011920929,
					1
				],
				"metallicFactor":0
			}
		},
		{
			"doubleSided":true,
			"extensions":{
				"KHR_materials_specular":{
					"specularColorFactor":[
						0,
						0,
						0
					]
				},
				"KHR_materials_ior":{
					"ior":1.4500000476837158
				}
			},
			"name":"Material41185",
			"pbrMetallicRoughness":{
				"baseColorFactor":[
					0.800000011920929,
					0.800000011920929,
					0.800000011920929,
					1
				],
				"metallicFactor":0
			}
		},
		{
			"doubleSided":true,
			"extensions":{
				"KHR_materials_specular":{
					"specularColorFactor":[
						0,
						0,
						0
					]
				},
				"KHR_materials_ior":{
					"ior":1.4500000476837158
				}
			},
			"name":"Material41189",
			"pbrMetallicRoughness":{
				"baseColorFactor":[
					0.800000011920929,
					0.800000011920929,
					0.800000011920929,
					1
				],
				"metallicFactor":0
			}
		},
		{
			"doubleSided":true,
			"extensions":{
				"KHR_materials_specular":{
					"specularColorFactor":[
						0,
						0,
						0
					]
				},
				"KHR_materials_ior":{
					"ior":1.4500000476837158
				}
			},
			"name":"Material41202",
			"pbrMetallicRoughness":{
				"baseColorFactor":[
					0.800000011920929,
					0.800000011920929,
					0.800000011920929,
					1
				],
				"metallicFactor":0
			}
		},
		{
			"doubleSided":true,
			"extensions":{
				"KHR_materials_specular":{
					"specularColorFactor":[
						0,
						0,
						0
					]
				},
				"KHR_materials_ior":{
					"ior":1.4500000476837158
				}
			},
			"name":"Material41218",
			"pbrMetallicRoughness":{
				"baseColorFactor":[
					0.800000011920929,
					0.800000011920929,
					0.800000011920929,
					1
				],
				"metallicFactor":0
			}
		}
	],
	"meshes":[
		{
			"name":"wedding_dress_ver_1",
			"primitives":[
				{
					"attributes":{
						"POSITION":0,
						"NORMAL":1,
						"TEXCOORD_0":2
					},
					"indices":3,
					"material":0
				},
				{
					"attributes":{
						"POSITION":4,
						"NORMAL":5,
						"TEXCOORD_0":6
					},
					"indices":7,
					"material":1
				},
				{
					"attributes":{
						"POSITION":8,
						"NORMAL":9,
						"TEXCOORD_0":10
					},
					"indices":11,
					"material":2
				},
				{
					"attributes":{
						"POSITION":12,
						"NORMAL":13,
						"TEXCOORD_0":14
					},
					"indices":15,
					"material":3
				},
				{
					"attributes":{
						"POSITION":16,
						"NORMAL":17,
						"TEXCOORD_0":18
					},
					"indices":19,
					"material":4
				}
			]
		}
	],
	"accessors":[
		{
			"bufferView":0,
			"componentType":5126,
			"count":4480,
			"max":[
				198.8314666748047,
				138.2560272216797,
				-203.29205322265625
			],
			"min":[
				-198.99038696289062,
				-191.41172790527344,
				-1490.967529296875
			],
			"type":"VEC3"
		},
		{
			"bufferView":1,
			"componentType":5126,
			"count":4480,
			"type":"VEC3"
		},
		{
			"bufferView":2,
			"componentType":5126,
			"count":4480,
			"type":"VEC2"
		},
		{
			"bufferView":3,
			"componentType":5123,
			"count":25746,
			"type":"SCALAR"
		},
		{
			"bufferView":4,
			"componentType":5126,
			"count":7270,
			"max":[
				1159.551025390625,
				79.89860534667969,
				-1.49003005027771
			],
			"min":[
				-1124.3277587890625,
				-1925.7640380859375,
				-1508.475830078125
			],
			"type":"VEC3"
		},
		{
			"bufferView":5,
			"componentType":5126,
			"count":7270,
			"type":"VEC3"
		},
		{
			"bufferView":6,
			"componentType":5126,
			"count":7270,
			"type":"VEC2"
		},
		{
			"bufferView":7,
			"componentType":5123,
			"count":41907,
			"type":"SCALAR"
		},
		{
			"bufferView":8,
			"componentType":5126,
			"count":3632,
			"max":[
				979.3295288085938,
				64.79393005371094,
				-6.943974018096924
			],
			"min":[
				-1036.1650390625,
				-1925.9749755859375,
				-1274.7650146484375
			],
			"type":"VEC3"
		},
		{
			"bufferView":9,
			"componentType":5126,
			"count":3632,
			"type":"VEC3"
		},
		{
			"bufferView":10,
			"componentType":5126,
			"count":3632,
			"type":"VEC2"
		},
		{
			"bufferView":11,
			"componentType":5123,
			"count":21027,
			"type":"SCALAR"
		},
		{
			"bufferView":12,
			"componentType":5126,
			"count":140,
			"max":[
				109.95092010498047,
				66.3949203491211,
				-1824.4000244140625
			],
			"min":[
				-22.178119659423828,
				-83.5201416015625,
				-1907.0631103515625
			],
			"type":"VEC3"
		},
		{
			"bufferView":13,
			"componentType":5126,
			"count":140,
			"type":"VEC3"
		},
		{
			"bufferView":14,
			"componentType":5126,
			"count":140,
			"type":"VEC2"
		},
		{
			"bufferView":15,
			"componentType":5123,
			"count":681,
			"type":"SCALAR"
		},
		{
			"bufferView":16,
			"componentType":5126,
			"count":1580,
			"max":[
				170.87771606445312,
				145.2652130126953,
				-1500.52734375
			],
			"min":[
				-178.91383361816406,
				-173.06288146972656,
				-1939.4017333984375
			],
			"type":"VEC3"
		},
		{
			"bufferView":17,
			"componentType":5126,
			"count":1580,
			"type":"VEC3"
		},
		{
			"bufferView":18,
			"componentType":5126,
			"count":1580,
			"type":"VEC2"
		},
		{
			"bufferView":19,
			"componentType":5123,
			"count":8655,
			"type":"SCALAR"
		}
	],
	"bufferViews":[
		{
			"buffer":0,
			"byteLength":53760,
			"byteOffset":0,
			"target":34962
		},
		{
			"buffer":0,
			"byteLength":53760,
			"byteOffset":53760,
			"target":34962
		},
		{
			"buffer":0,
			"byteLength":35840,
			"byteOffset":107520,
			"target":34962
		},
		{
			"buffer":0,
			"byteLength":51492,
			"byteOffset":143360,
			"target":34963
		},
		{
			"buffer":0,
			"byteLength":87240,
			"byteOffset":194852,
			"target":34962
		},
		{
			"buffer":0,
			"byteLength":87240,
			"byteOffset":282092,
			"target":34962
		},
		{
			"buffer":0,
			"byteLength":58160,
			"byteOffset":369332,
			"target":34962
		},
		{
			"buffer":0,
			"byteLength":83814,
			"byteOffset":427492,
			"target":34963
		},
		{
			"buffer":0,
			"byteLength":43584,
			"byteOffset":511308,
			"target":34962
		},
		{
			"buffer":0,
			"byteLength":43584,
			"byteOffset":554892,
			"target":34962
		},
		{
			"buffer":0,
			"byteLength":29056,
			"byteOffset":598476,
			"target":34962
		},
		{
			"buffer":0,
			"byteLength":42054,
			"byteOffset":627532,
			"target":34963
		},
		{
			"buffer":0,
			"byteLength":1680,
			"byteOffset":669588,
			"target":34962
		},
		{
			"buffer":0,
			"byteLength":1680,
			"byteOffset":671268,
			"target":34962
		},
		{
			"buffer":0,
			"byteLength":1120,
			"byteOffset":672948,
			"target":34962
		},
		{
			"buffer":0,
			"byteLength":1362,
			"byteOffset":674068,
			"target":34963
		},
		{
			"buffer":0,
			"byteLength":18960,
			"byteOffset":675432,
			"target":34962
		},
		{
			"buffer":0,
			"byteLength":18960,
			"byteOffset":694392,
			"target":34962
		},
		{
			"buffer":0,
			"byteLength":12640,
			"byteOffset":713352,
			"target":34962
		},
		{
			"buffer":0,
			"byteLength":17310,
			"byteOffset":725992,
			"target":34963
		}
	],
	"buffers":[
		{
			"byteLength":743304,
			"uri":"data:application/octet-stream;base64,"
		}
	]
}
